<svg xmlns="http://www.w3.org/2000/svg" viewBox="0 0 695.25 620.92"><defs><style>.cls-1{fill:none;stroke:#000;stroke-miterlimit:10;stroke-width:6px;}.cls-2{fill:#d02700;}.cls-3{fill:#01aef0;}.cls-4{fill:#ef4138;}.cls-5{fill:#bd1d2d;}.cls-6{fill:#fff;}</style></defs><title>kipIllustratie</title><g id="achterpoot"><line class="cls-1" x1="326.5" y1="531.2" x2="326.5" y2="592.66"/><ellipse class="cls-2" cx="682.58" cy="730.54" rx="34.39" ry="18.29" transform="translate(-402.67 -157.28) rotate(-3.71)"/><line class="cls-1" x1="326.5" y1="591.2" x2="292.84" y2="585.34"/><line class="cls-1" x1="304.55" y1="617.54" x2="326.5" y2="591.2"/><line class="cls-1" x1="342.6" y1="616.07" x2="326.5" y2="591.2"/></g><g id="Voorpoot"><line class="cls-1" x1="244.55" y1="529.74" x2="243.09" y2="592.66"/><ellipse class="cls-2" cx="605.02" cy="727.61" rx="18.29" ry="34.39" transform="translate(-565.58 1007.54) rotate(-80.94)"/><line class="cls-1" x1="243.09" y1="592.66" x2="209.43" y2="586.81"/><line class="cls-1" x1="221.14" y1="619" x2="243.09" y2="592.66"/><line class="cls-1" x1="259.18" y1="617.54" x2="243.09" y2="592.66"/></g><g id="Body"><path class="cls-3" d="M883.11,505.82a339.59,339.59,0,0,1-43.22,2.74c-70.27,0-133.49-21.3-177.61-55.26h-192c-35.07,29.71-56.19,68-56.19,109.75,0,94.52,108.11,171.15,241.46,171.15S897,657.57,897,563.05A127.09,127.09,0,0,0,883.11,505.82Z" transform="translate(-356.81 -203)"/></g><g id="Snavel"><polygon class="cls-4" points="0.17 136.72 46.36 134.91 43.26 116.52 0.17 136.72"/><polygon class="cls-4" points="0 136.7 53.73 134.6 57.45 152.91 0 136.7"/></g><g id="Sik"><path class="cls-3" d="M425.47,413.48c.54,9.3-3.13,15.24-8.79,15.57s-11.09-7-11.23-16.36a85.24,85.24,0,0,1,8.15-36.88s2.65,9.42,5.74,17.48C424.06,405.62,425.11,407.29,425.47,413.48Z" transform="translate(-356.81 -203)"/></g><g id="Head"><path class="cls-5" d="M655.51,442.56S648,415,621.85,368.36c-20.49-36.58-54.14-79-115.61-91.58-40.75-8.32-77.55-3.07-101,24.56-20.08,23.7-7.59,66.62,10.86,71.34,27.19,6.95,34.51,12.74,43.16,20,17.76,14.83,21.1,27.5,21.22,34.68a16.59,16.59,0,0,1-2.59,9.05l-3.87,6.19Z" transform="translate(-356.81 -203)"/></g><g id="Tooi"><path class="cls-3" d="M418.47,289.15c22.91-16.45,53.81-18.16,87.77-12.37q6.36,1.1,12.22,2.65c5.29-19.49,3.12-37.39-5.51-41.36-7.21-3.33-16.83,4.06-24.21,17.36-1.71-19.29-9.81-34.3-19.85-35.18-9.34-.82-17.52,10.83-20.65,27.68-.25-.82-.51-1.63-.79-2.45-9.12-27.17-26.39-45.95-38.58-41.94S394.19,232.83,403.3,260C407.21,271.64,412.61,281.73,418.47,289.15Z" transform="translate(-356.81 -203)"/></g><g id="Staart"><path class="cls-5" d="M880.07,307.47c-28.06,70.85-27.13,181-2.94,191.52l110-277.84C962.94,210.61,908.12,236.62,880.07,307.47Z" transform="translate(-356.81 -203)"/><path class="cls-5" d="M957,372.85C915.71,413.06,879,486.23,890.36,499l161.7-157.68C1040.73,328.56,998.18,332.64,957,372.85Z" transform="translate(-356.81 -203)"/><path class="cls-5" d="M973.55,461.49c-35.63,7.58-79.42,34.59-77.32,45.42L1036,477.19C1033.87,466.36,1009.18,453.92,973.55,461.49Z" transform="translate(-356.81 -203)"/></g><g id="Vleugel"><path class="cls-5" d="M469.06,520.67l-.15.88c-9.09,59.86,35.69,116.3,100,126.07s123.84-30.84,132.92-90.7c0-.3.08-.59.13-.89Z" transform="translate(-356.81 -203)"/></g><g id="Oog"><path class="cls-6" d="M452.83,296.74c-11.72,0-21.22,10-21.22,22.25s9.5,22.26,21.22,22.26,21.22-10,21.22-22.26S464.55,296.74,452.83,296.74Zm-9.51,23a3.07,3.07,0,1,1,2.93-3.07A3,3,0,0,1,443.32,319.76Z" transform="translate(-356.81 -203)"/><ellipse cx="86.51" cy="113.69" rx="4.11" ry="4.31"/></g></svg>