<?xml version="1.0" encoding="utf-8"?>
<!-- Generator: Adobe Illustrator 16.0.4, SVG Export Plug-In . SVG Version: 6.00 Build 0)  -->
<!DOCTYPE svg PUBLIC "-//W3C//DTD SVG 1.1//EN" "http://www.w3.org/Graphics/SVG/1.1/DTD/svg11.dtd">
<svg version="1.1" id="Layer_1" xmlns="http://www.w3.org/2000/svg" xmlns:xlink="http://www.w3.org/1999/xlink" x="0px" y="0px"
	 width="150px" height="80px" viewBox="0 0 150 80" enable-background="new 0 0 150 80" xml:space="preserve">
<g id="grid">
</g>
<g>
	<g>
		<path d="M80.001,40c0-16.57,13.431-30,30-30c16.565,0,29.998,13.43,29.998,30c0,16.564-13.433,30-29.998,30
			C93.432,70,80.001,56.564,80.001,40z"/>
		<g>
			<polygon fill="#FFFFFF" points="106.273,28.729 117.486,39.941 106.273,51.154 104.859,49.739 114.656,39.941 104.859,30.145 			
				"/>
		</g>
	</g>
	<g>
		<path fill="#A3A3A2" d="M10.001,40c0-16.57,13.43-30,30-30c16.565,0,29.998,13.43,29.998,30c0,16.564-13.433,30-29.998,30
			C23.431,70,10.001,56.564,10.001,40z"/>
		<g>
			<polygon fill="#ECECEA" points="36.274,28.729 47.487,39.941 36.274,51.154 34.859,49.739 44.656,39.941 34.859,30.145 			"/>
		</g>
	</g>
</g>
</svg>
