<?xml version="1.0" encoding="utf-8"?>
<!-- Generator: Adobe Illustrator 16.0.4, SVG Export Plug-In . SVG Version: 6.00 Build 0)  -->
<!DOCTYPE svg PUBLIC "-//W3C//DTD SVG 1.1//EN" "http://www.w3.org/Graphics/SVG/1.1/DTD/svg11.dtd">
<svg version="1.1" id="Layer_1" xmlns="http://www.w3.org/2000/svg" xmlns:xlink="http://www.w3.org/1999/xlink" x="0px" y="0px"
	 width="150px" height="80px" viewBox="0 0 150 80" enable-background="new 0 0 150 80" xml:space="preserve">
<g>
	<path fill="#A3A3A2" d="M10,40c0-16.57,13.429-30,30-30c16.565,0,29.998,13.43,29.998,30c0,16.564-13.433,30-29.998,30
		C23.429,70,10,56.564,10,40z"/>
	<g>
		<polygon fill="#ECECEA" points="43.609,51.154 32.397,39.941 43.609,28.729 45.024,30.145 35.226,39.941 45.024,49.739 		"/>
	</g>
</g>
<g>
	<path d="M80.002,40c0-16.57,13.43-30,30-30C126.568,10,140,23.43,140,40c0,16.564-13.434,30-29.998,30
		C93.432,70,80.002,56.564,80.002,40z"/>
	<g>
		<polygon fill="#ECECEA" points="113.611,51.154 102.398,39.941 113.611,28.729 115.025,30.145 105.229,39.941 115.025,49.739 		
			"/>
	</g>
</g>
<g id="grid">
</g>
</svg>
